<svg width="80" height="40" viewBox="0 0 80 40" fill="none" xmlns="http://www.w3.org/2000/svg">
<g clip-path="url(#clip0_184_811)">
<path d="M39.4993 0C17.4084 0 -0.5 8.9549 -0.5 19.9996C-0.5 31.0444 17.4084 39.9993 39.4993 39.9993C61.5902 39.9993 79.5 31.0444 79.5 19.9996C79.5 8.9549 61.5888 0 39.4993 0ZM39.4993 36.8426C19.1525 36.8426 2.65806 29.3017 2.65806 19.9996C2.65806 10.6976 19.1525 3.15806 39.4993 3.15806C59.8461 3.15806 76.3419 10.6976 76.3419 19.9996C76.3419 29.3017 59.8475 36.8426 39.4993 36.8426ZM34.456 16.4916V13.3336H45.7449V16.4916H41.6809V26.67H38.5186V16.4916H34.456ZM59.3621 13.3336V26.67H56.204L50.4763 18.7325V26.67H47.3197V13.3336H50.4763L56.204 21.2711V13.3336H59.3621ZM19.5448 26.67V13.3336H22.7029L26.2109 18.7296L29.7189 13.3336H32.877V26.67H29.7189V19.1248L27.32 22.8063H25.0975L22.6986 19.1248V26.67H19.5448Z" fill="black"/>
</g>
<defs>
<clipPath id="clip0_184_811">
<rect width="80" height="39.9993" fill="white"/>
</clipPath>
</defs>
</svg>
